<?xml version="1.0" encoding="iso-8859-1"?>
<!-- Generator: Adobe Illustrator 19.0.0, SVG Export Plug-In . SVG Version: 6.00 Build 0)  -->
<svg xmlns="http://www.w3.org/2000/svg" xmlns:xlink="http://www.w3.org/1999/xlink" version="1.1" id="Layer_1" x="0px" y="0px" viewBox="0 0 472.615 472.615" style="enable-background:new 0 0 472.615 472.615;" xml:space="preserve" width="512px" height="512px">
<g>
	<g>
		<path d="M302.769,39.174H169.846c-16.313,0-29.538,13.223-29.538,29.538v19.31h192v-19.31    C332.308,52.398,319.083,39.174,302.769,39.174z" fill="#b54e6a"/>
	</g>
</g>
<g>
	<g>
		<path d="M0,107.717v44.407l89.215,116.86c3.702,4.836,9.554,7.731,15.649,7.731h110.603v-18.793h41.682v18.793h110.605    c6.096,0,11.942-2.895,15.645-7.741l89.217-116.632v-44.626H0z" fill="#b54e6a"/>
	</g>
</g>
<g>
	<g>
		<path d="M399.042,280.937c-7.403,9.683-19.096,15.471-31.288,15.471H257.149v5.822c0,11.512-9.331,20.841-20.841,20.841    c-11.51,0-20.84-9.329-20.84-20.841v-5.822H104.865c-12.188,0-23.885-5.78-31.298-15.471L0,184.572v248.869h472.615V184.744    L399.042,280.937z" fill="#b54e6a"/>
	</g>
</g>
<g>
</g>
<g>
</g>
<g>
</g>
<g>
</g>
<g>
</g>
<g>
</g>
<g>
</g>
<g>
</g>
<g>
</g>
<g>
</g>
<g>
</g>
<g>
</g>
<g>
</g>
<g>
</g>
<g>
</g>
</svg>
