<?xml version="1.0" encoding="iso-8859-1"?>
<!-- Generator: Adobe Illustrator 19.0.0, SVG Export Plug-In . SVG Version: 6.00 Build 0)  -->
<svg xmlns="http://www.w3.org/2000/svg" xmlns:xlink="http://www.w3.org/1999/xlink" version="1.1" id="Layer_1" x="0px" y="0px" viewBox="0 0 481.882 481.882" style="enable-background:new 0 0 481.882 481.882;" xml:space="preserve" width="512px" height="512px">
<g>
	<g>
		<circle cx="196.141" cy="253.704" r="13.801" fill="#b64d6b"/>
	</g>
</g>
<g>
	<g>
		<circle cx="258.711" cy="185.382" r="6.008" fill="#b64d6b"/>
	</g>
</g>
<g>
	<g>
		<circle cx="223.977" cy="122.391" r="4.232" fill="#b64d6b"/>
	</g>
</g>
<g>
	<g>
		<circle cx="252.695" cy="84.111" r="5.843" fill="#b64d6b"/>
	</g>
</g>
<g>
	<g>
		<circle cx="308.337" cy="286.645" r="9.352" fill="#b64d6b"/>
	</g>
</g>
<g>
	<g>
		<path d="M294.837,190.155V50.647h6.732c4.158,0,7.529-3.367,7.529-7.529V7.529c0-4.162-3.372-7.529-7.529-7.529H185.69    c-4.159,0-7.529,3.367-7.529,7.529v35.588c0,4.162,3.371,7.529,7.529,7.529h6.731v139.508    c-14.923,5.404-28.831,13.125-41.394,22.97l-16.069-19.507c-2.177-2.647-5.254-4.286-8.666-4.618    c-3.427-0.338-6.754,0.684-9.401,2.868l-24.323,20.03c-5.452,4.492-6.239,12.588-1.747,18.059l22.254,27.015    c-14.544,25.39-21.29,54.346-19.518,83.823c4.765,79.169,70.654,141.096,150.078,141.088c0.095,0,0.194,0,0.286,0    c82.739-0.162,150.055-67.61,150.055-150.353C393.976,268.316,354.19,211.654,294.837,190.155z M193.22,15.059h100.82v20.529    h-6.732h-87.356h-6.731V15.059z M160.129,379.238c-5.455,0-9.877-4.423-9.877-9.879c0-5.454,4.422-9.876,9.877-9.876    c5.456,0,9.877,4.423,9.877,9.876C170.006,374.816,165.584,379.238,160.129,379.238z M199.79,425.547    c-3.696,0-6.692-2.996-6.692-6.693c0-3.695,2.996-6.691,6.692-6.691c3.695,0,6.691,2.996,6.691,6.691    C206.481,422.551,203.485,425.547,199.79,425.547z M233.414,351.079c-2.874,0-5.204-2.331-5.204-5.206    c0-2.873,2.33-5.204,5.204-5.204c2.874,0,5.204,2.331,5.204,5.204C238.618,348.748,236.288,351.079,233.414,351.079z     M274.205,412.164c-2.476,0-4.484-2.007-4.484-4.484s2.007-4.484,4.484-4.484c2.476,0,4.483,2.007,4.483,4.484    S276.681,412.164,274.205,412.164z M321.924,420.647c-2.343,0-4.242-1.901-4.242-4.243c0-2.342,1.899-4.241,4.242-4.241    c2.342,0,4.241,1.898,4.241,4.241C326.164,418.746,324.266,420.647,321.924,420.647z M330.367,359.483    c-2.321,0-4.203-1.881-4.203-4.202c0-2.322,1.882-4.202,4.203-4.202c2.321,0,4.203,1.88,4.203,4.202    C334.57,357.603,332.688,359.483,330.367,359.483z M111.492,302.75c2.982-13.734,8.036-26.965,15.194-39.236    c2.798-4.802,2.324-10.875-1.176-15.132l-21.647-26.28l20.882-17.199l15.776,19.147c4.592,5.581,12.945,6.404,18.625,1.853    c11.89-9.529,25.154-16.912,39.43-21.956c5.327-1.882,8.904-6.904,8.904-12.493V50.647h72.297v140.817    c0,5.581,3.57,10.595,8.886,12.478c0.004,0,0.008,0,0.008,0.008c44.718,15.791,77.208,53.71,87.064,98.802H111.492z" fill="#b64d6b"/>
	</g>
</g>
<g>
</g>
<g>
</g>
<g>
</g>
<g>
</g>
<g>
</g>
<g>
</g>
<g>
</g>
<g>
</g>
<g>
</g>
<g>
</g>
<g>
</g>
<g>
</g>
<g>
</g>
<g>
</g>
<g>
</g>
</svg>
